<mxfile host="app.diagrams.net" agent="Mozilla/5.0 (Windows NT 10.0; Win64; x64) AppleWebKit/537.36 (KHTML, like Gecko) Chrome/139.0.0.0 Safari/537.36" version="28.2.1">
  <diagram id="pDkxt7de-uK2Nj1U46Aq" name="ページ1">
    <mxGraphModel dx="552" dy="573" grid="1" gridSize="10" guides="1" tooltips="1" connect="1" arrows="1" fold="1" page="1" pageScale="1" pageWidth="827" pageHeight="1169" math="0" shadow="0">
      <root>
        <mxCell id="0" />
        <mxCell id="1" parent="0" />
        <mxCell id="T_dOHvx9vXpwXSIZgGzA-5" value="" style="shape=umlLifeline;perimeter=lifelinePerimeter;whiteSpace=wrap;html=1;container=1;dropTarget=0;collapsible=0;recursiveResize=0;outlineConnect=0;portConstraint=eastwest;newEdgeStyle={&quot;curved&quot;:0,&quot;rounded&quot;:0};participant=umlActor;" vertex="1" parent="1">
          <mxGeometry x="130" y="80" width="20" height="300" as="geometry" />
        </mxCell>
        <mxCell id="T_dOHvx9vXpwXSIZgGzA-6" value="" style="html=1;points=[[0,0,0,0,5],[0,1,0,0,-5],[1,0,0,0,5],[1,1,0,0,-5]];perimeter=orthogonalPerimeter;outlineConnect=0;targetShapes=umlLifeline;portConstraint=eastwest;newEdgeStyle={&quot;curved&quot;:0,&quot;rounded&quot;:0};" vertex="1" parent="T_dOHvx9vXpwXSIZgGzA-5">
          <mxGeometry x="5" y="90" width="10" height="70" as="geometry" />
        </mxCell>
        <mxCell id="T_dOHvx9vXpwXSIZgGzA-45" value="" style="html=1;points=[[0,0,0,0,5],[0,1,0,0,-5],[1,0,0,0,5],[1,1,0,0,-5]];perimeter=orthogonalPerimeter;outlineConnect=0;targetShapes=umlLifeline;portConstraint=eastwest;newEdgeStyle={&quot;curved&quot;:0,&quot;rounded&quot;:0};" vertex="1" parent="T_dOHvx9vXpwXSIZgGzA-5">
          <mxGeometry x="5" y="190" width="10" height="80" as="geometry" />
        </mxCell>
        <mxCell id="T_dOHvx9vXpwXSIZgGzA-11" value="" style="shape=umlLifeline;perimeter=lifelinePerimeter;whiteSpace=wrap;html=1;container=1;dropTarget=0;collapsible=0;recursiveResize=0;outlineConnect=0;portConstraint=eastwest;newEdgeStyle={&quot;curved&quot;:0,&quot;rounded&quot;:0};participant=umlBoundary;fillColor=#d5e8d4;strokeColor=#82b366;" vertex="1" parent="1">
          <mxGeometry x="210" y="80" width="50" height="300" as="geometry" />
        </mxCell>
        <mxCell id="T_dOHvx9vXpwXSIZgGzA-27" value="" style="html=1;points=[[0,0,0,0,5],[0,1,0,0,-5],[1,0,0,0,5],[1,1,0,0,-5]];perimeter=orthogonalPerimeter;outlineConnect=0;targetShapes=umlLifeline;portConstraint=eastwest;newEdgeStyle={&quot;curved&quot;:0,&quot;rounded&quot;:0};" vertex="1" parent="T_dOHvx9vXpwXSIZgGzA-11">
          <mxGeometry x="20" y="120" width="10" height="60" as="geometry" />
        </mxCell>
        <mxCell id="T_dOHvx9vXpwXSIZgGzA-12" value="" style="shape=umlLifeline;perimeter=lifelinePerimeter;whiteSpace=wrap;html=1;container=1;dropTarget=0;collapsible=0;recursiveResize=0;outlineConnect=0;portConstraint=eastwest;newEdgeStyle={&quot;curved&quot;:0,&quot;rounded&quot;:0};participant=umlBoundary;fillColor=#d5e8d4;strokeColor=#82b366;" vertex="1" parent="1">
          <mxGeometry x="300" y="80" width="50" height="300" as="geometry" />
        </mxCell>
        <mxCell id="T_dOHvx9vXpwXSIZgGzA-42" value="" style="html=1;points=[[0,0,0,0,5],[0,1,0,0,-5],[1,0,0,0,5],[1,1,0,0,-5]];perimeter=orthogonalPerimeter;outlineConnect=0;targetShapes=umlLifeline;portConstraint=eastwest;newEdgeStyle={&quot;curved&quot;:0,&quot;rounded&quot;:0};" vertex="1" parent="T_dOHvx9vXpwXSIZgGzA-12">
          <mxGeometry x="20" y="120" width="10" height="50" as="geometry" />
        </mxCell>
        <mxCell id="T_dOHvx9vXpwXSIZgGzA-46" value="" style="html=1;points=[[0,0,0,0,5],[0,1,0,0,-5],[1,0,0,0,5],[1,1,0,0,-5]];perimeter=orthogonalPerimeter;outlineConnect=0;targetShapes=umlLifeline;portConstraint=eastwest;newEdgeStyle={&quot;curved&quot;:0,&quot;rounded&quot;:0};" vertex="1" parent="T_dOHvx9vXpwXSIZgGzA-12">
          <mxGeometry x="20" y="210" width="10" height="60" as="geometry" />
        </mxCell>
        <mxCell id="T_dOHvx9vXpwXSIZgGzA-13" value="" style="shape=umlLifeline;perimeter=lifelinePerimeter;whiteSpace=wrap;html=1;container=1;dropTarget=0;collapsible=0;recursiveResize=0;outlineConnect=0;portConstraint=eastwest;newEdgeStyle={&quot;curved&quot;:0,&quot;rounded&quot;:0};participant=umlControl;fillColor=#f8cecc;strokeColor=#b85450;" vertex="1" parent="1">
          <mxGeometry x="390" y="80" width="40" height="300" as="geometry" />
        </mxCell>
        <mxCell id="T_dOHvx9vXpwXSIZgGzA-50" value="" style="html=1;points=[[0,0,0,0,5],[0,1,0,0,-5],[1,0,0,0,5],[1,1,0,0,-5]];perimeter=orthogonalPerimeter;outlineConnect=0;targetShapes=umlLifeline;portConstraint=eastwest;newEdgeStyle={&quot;curved&quot;:0,&quot;rounded&quot;:0};" vertex="1" parent="T_dOHvx9vXpwXSIZgGzA-13">
          <mxGeometry x="15" y="210" width="10" height="40" as="geometry" />
        </mxCell>
        <mxCell id="T_dOHvx9vXpwXSIZgGzA-14" value="" style="shape=umlLifeline;perimeter=lifelinePerimeter;whiteSpace=wrap;html=1;container=1;dropTarget=0;collapsible=0;recursiveResize=0;outlineConnect=0;portConstraint=eastwest;newEdgeStyle={&quot;curved&quot;:0,&quot;rounded&quot;:0};participant=umlEntity;fillColor=#dae8fc;strokeColor=#6c8ebf;" vertex="1" parent="1">
          <mxGeometry x="490" y="80" width="40" height="300" as="geometry" />
        </mxCell>
        <mxCell id="T_dOHvx9vXpwXSIZgGzA-53" value="" style="html=1;points=[[0,0,0,0,5],[0,1,0,0,-5],[1,0,0,0,5],[1,1,0,0,-5]];perimeter=orthogonalPerimeter;outlineConnect=0;targetShapes=umlLifeline;portConstraint=eastwest;newEdgeStyle={&quot;curved&quot;:0,&quot;rounded&quot;:0};" vertex="1" parent="T_dOHvx9vXpwXSIZgGzA-14">
          <mxGeometry x="15" y="220" width="10" height="50" as="geometry" />
        </mxCell>
        <mxCell id="T_dOHvx9vXpwXSIZgGzA-21" value="" style="html=1;points=[[0,0,0,0,5],[0,1,0,0,-5],[1,0,0,0,5],[1,1,0,0,-5]];perimeter=orthogonalPerimeter;outlineConnect=0;targetShapes=umlLifeline;portConstraint=eastwest;newEdgeStyle={&quot;curved&quot;:0,&quot;rounded&quot;:0};" vertex="1" parent="1">
          <mxGeometry x="110" y="440" width="10" height="80" as="geometry" />
        </mxCell>
        <mxCell id="T_dOHvx9vXpwXSIZgGzA-22" value="活性区間&lt;div&gt;Activation Bar&lt;/div&gt;" style="text;html=1;align=center;verticalAlign=middle;resizable=0;points=[];autosize=1;strokeColor=none;fillColor=none;" vertex="1" parent="1">
          <mxGeometry x="120" y="440" width="100" height="40" as="geometry" />
        </mxCell>
        <mxCell id="T_dOHvx9vXpwXSIZgGzA-23" value="" style="endArrow=none;dashed=1;html=1;rounded=0;" edge="1" parent="1">
          <mxGeometry width="50" height="50" relative="1" as="geometry">
            <mxPoint x="234.67" y="520" as="sourcePoint" />
            <mxPoint x="234.67" y="440" as="targetPoint" />
          </mxGeometry>
        </mxCell>
        <mxCell id="T_dOHvx9vXpwXSIZgGzA-25" value="生存線&lt;div&gt;Life Line&lt;/div&gt;" style="text;html=1;align=center;verticalAlign=middle;resizable=0;points=[];autosize=1;strokeColor=none;fillColor=none;" vertex="1" parent="1">
          <mxGeometry x="240" y="440" width="70" height="40" as="geometry" />
        </mxCell>
        <mxCell id="T_dOHvx9vXpwXSIZgGzA-28" value="" style="endArrow=classic;html=1;rounded=0;" edge="1" parent="1" source="T_dOHvx9vXpwXSIZgGzA-6">
          <mxGeometry width="50" height="50" relative="1" as="geometry">
            <mxPoint x="150.0004347826087" y="200" as="sourcePoint" />
            <mxPoint x="230.37" y="200" as="targetPoint" />
          </mxGeometry>
        </mxCell>
        <mxCell id="T_dOHvx9vXpwXSIZgGzA-29" value="メニュー画面" style="text;html=1;align=center;verticalAlign=middle;resizable=0;points=[];autosize=1;strokeColor=none;fillColor=none;" vertex="1" parent="1">
          <mxGeometry x="185" y="118" width="100" height="30" as="geometry" />
        </mxCell>
        <mxCell id="T_dOHvx9vXpwXSIZgGzA-30" value="学生登録画面" style="text;html=1;align=center;verticalAlign=middle;resizable=0;points=[];autosize=1;strokeColor=none;fillColor=none;" vertex="1" parent="1">
          <mxGeometry x="275" y="118" width="100" height="30" as="geometry" />
        </mxCell>
        <mxCell id="T_dOHvx9vXpwXSIZgGzA-31" value="学生情報登録" style="text;html=1;align=center;verticalAlign=middle;resizable=0;points=[];autosize=1;strokeColor=none;fillColor=none;" vertex="1" parent="1">
          <mxGeometry x="360" y="118" width="100" height="30" as="geometry" />
        </mxCell>
        <mxCell id="T_dOHvx9vXpwXSIZgGzA-32" value="学生オブジェクト" style="text;html=1;align=center;verticalAlign=middle;resizable=0;points=[];autosize=1;strokeColor=none;fillColor=none;" vertex="1" parent="1">
          <mxGeometry x="460" y="118" width="120" height="30" as="geometry" />
        </mxCell>
        <mxCell id="T_dOHvx9vXpwXSIZgGzA-33" value="" style="endArrow=classic;html=1;rounded=0;fontStyle=1;startSize=6;strokeWidth=6;" edge="1" parent="1">
          <mxGeometry width="50" height="50" relative="1" as="geometry">
            <mxPoint x="50" y="80" as="sourcePoint" />
            <mxPoint x="50" y="380" as="targetPoint" />
          </mxGeometry>
        </mxCell>
        <mxCell id="T_dOHvx9vXpwXSIZgGzA-34" value="時間の流れ" style="text;html=1;align=center;verticalAlign=middle;resizable=0;points=[];autosize=1;strokeColor=none;fillColor=none;fontStyle=1;fontSize=20;" vertex="1" parent="1">
          <mxGeometry y="380" width="120" height="40" as="geometry" />
        </mxCell>
        <mxCell id="T_dOHvx9vXpwXSIZgGzA-35" value="学生登録を選択()" style="text;html=1;align=center;verticalAlign=middle;resizable=0;points=[];autosize=1;strokeColor=none;fillColor=none;fontSize=12;" vertex="1" parent="1">
          <mxGeometry x="140" y="160" width="120" height="30" as="geometry" />
        </mxCell>
        <mxCell id="T_dOHvx9vXpwXSIZgGzA-39" value="" style="endArrow=classic;html=1;rounded=0;" edge="1" parent="1">
          <mxGeometry width="50" height="50" relative="1" as="geometry">
            <mxPoint x="340" y="480" as="sourcePoint" />
            <mxPoint x="410" y="480" as="targetPoint" />
          </mxGeometry>
        </mxCell>
        <mxCell id="T_dOHvx9vXpwXSIZgGzA-40" value="操作()&lt;div&gt;Method&lt;/div&gt;" style="text;html=1;align=center;verticalAlign=middle;resizable=0;points=[];autosize=1;strokeColor=none;fillColor=none;" vertex="1" parent="1">
          <mxGeometry x="340" y="433" width="60" height="40" as="geometry" />
        </mxCell>
        <mxCell id="T_dOHvx9vXpwXSIZgGzA-41" value="メッセージ&lt;div&gt;Message&lt;/div&gt;" style="text;html=1;align=center;verticalAlign=middle;resizable=0;points=[];autosize=1;strokeColor=none;fillColor=none;" vertex="1" parent="1">
          <mxGeometry x="430" y="433" width="80" height="40" as="geometry" />
        </mxCell>
        <mxCell id="T_dOHvx9vXpwXSIZgGzA-43" value="" style="endArrow=classic;html=1;rounded=0;" edge="1" parent="1" target="T_dOHvx9vXpwXSIZgGzA-42">
          <mxGeometry width="50" height="50" relative="1" as="geometry">
            <mxPoint x="240" y="210" as="sourcePoint" />
            <mxPoint x="310" y="210" as="targetPoint" />
          </mxGeometry>
        </mxCell>
        <mxCell id="T_dOHvx9vXpwXSIZgGzA-44" value="表示()" style="text;html=1;align=center;verticalAlign=middle;resizable=0;points=[];autosize=1;strokeColor=none;fillColor=none;fontSize=10;" vertex="1" parent="1">
          <mxGeometry x="255" y="178" width="50" height="30" as="geometry" />
        </mxCell>
        <mxCell id="T_dOHvx9vXpwXSIZgGzA-47" value="" style="endArrow=classic;html=1;rounded=0;" edge="1" parent="1" target="T_dOHvx9vXpwXSIZgGzA-12">
          <mxGeometry width="50" height="50" relative="1" as="geometry">
            <mxPoint x="150" y="300" as="sourcePoint" />
            <mxPoint x="230" y="300" as="targetPoint" />
          </mxGeometry>
        </mxCell>
        <mxCell id="T_dOHvx9vXpwXSIZgGzA-48" value="学生データ入力()" style="text;html=1;align=center;verticalAlign=middle;resizable=0;points=[];autosize=1;strokeColor=none;fillColor=none;fontSize=10;" vertex="1" parent="1">
          <mxGeometry x="140" y="270" width="100" height="30" as="geometry" />
        </mxCell>
        <mxCell id="T_dOHvx9vXpwXSIZgGzA-51" value="" style="endArrow=classic;html=1;rounded=0;" edge="1" parent="1">
          <mxGeometry width="50" height="50" relative="1" as="geometry">
            <mxPoint x="335" y="300" as="sourcePoint" />
            <mxPoint x="405" y="300" as="targetPoint" />
          </mxGeometry>
        </mxCell>
        <mxCell id="T_dOHvx9vXpwXSIZgGzA-52" value="起動()" style="text;html=1;align=center;verticalAlign=middle;resizable=0;points=[];autosize=1;strokeColor=none;fillColor=none;fontSize=10;" vertex="1" parent="1">
          <mxGeometry x="340" y="260" width="50" height="30" as="geometry" />
        </mxCell>
        <mxCell id="T_dOHvx9vXpwXSIZgGzA-55" value="" style="endArrow=classic;html=1;rounded=0;" edge="1" parent="1" target="T_dOHvx9vXpwXSIZgGzA-14">
          <mxGeometry width="50" height="50" relative="1" as="geometry">
            <mxPoint x="414" y="310" as="sourcePoint" />
            <mxPoint x="484" y="310" as="targetPoint" />
          </mxGeometry>
        </mxCell>
        <mxCell id="T_dOHvx9vXpwXSIZgGzA-56" value="学生データ登録()" style="text;html=1;align=center;verticalAlign=middle;resizable=0;points=[];autosize=1;strokeColor=none;fillColor=none;fontSize=10;" vertex="1" parent="1">
          <mxGeometry x="414" y="270" width="100" height="30" as="geometry" />
        </mxCell>
      </root>
    </mxGraphModel>
  </diagram>
</mxfile>
